<svg xmlns="http://www.w3.org/2000/svg" viewBox="0 0 54.64 54.89"><defs><style>.cls-1{fill:#0097e3;}</style></defs><title>bus</title><g id="Слой_2" data-name="Слой 2"><g id="Слой_1-2" data-name="Слой 1"><path class="cls-1" d="M40.07,16.47a2.69,2.69,0,0,0-2.73-2.74h-20a2.69,2.69,0,0,0-2.73,2.74v11a2.69,2.69,0,0,0,2.73,2.74h20a2.69,2.69,0,0,0,2.73-2.74v-11Zm-1.82,11a.86.86,0,0,1-.91.91h-6l3-3a.89.89,0,0,0,0-1.28.88.88,0,0,0-1.27,0l-4.28,4.3H23.13l3-3a.89.89,0,0,0,0-1.28.88.88,0,0,0-1.28,0l-4.28,4.3H17.3a.86.86,0,0,1-.91-.91v-11a.86.86,0,0,1,.91-.91h20a.86.86,0,0,1,.91.91v11Z"/><path class="cls-1" d="M53,15.64H50.91a1.64,1.64,0,0,0-1.64,1.65v1.92h-1V2.74A2.69,2.69,0,0,0,45.53,0H9.11A2.69,2.69,0,0,0,6.37,2.74V19.21h-1V17.29a1.64,1.64,0,0,0-1.64-1.65H1.64A1.64,1.64,0,0,0,0,17.29v5.76A1.64,1.64,0,0,0,1.64,24.7H3.82a1.51,1.51,0,0,0,1.55-1.65V21h1V31.11H5.46a.86.86,0,0,0-.91.91V43s0,0,0,0,0,0,0,0v3.57A2.69,2.69,0,0,0,7.29,49.4H8.2v1.83a3.66,3.66,0,0,0,3.64,3.66h3.64a3.66,3.66,0,0,0,3.64-3.66V49.4H35.52v1.83a3.66,3.66,0,0,0,3.64,3.66H42.8a3.66,3.66,0,0,0,3.64-3.66V49.4h.91a2.69,2.69,0,0,0,2.73-2.74V43.09s0,0,0,0,0,0,0,0V32a.86.86,0,0,0-.91-.91h-.91V21h1v2a1.64,1.64,0,0,0,1.64,1.65H53a1.64,1.64,0,0,0,1.64-1.65V17.29A1.64,1.64,0,0,0,53,15.64ZM3.64,22.87H1.82V17.38H3.64v5.49ZM17.3,51.23a1.83,1.83,0,0,1-1.82,1.83H11.84A1.83,1.83,0,0,1,10,51.23V49.4H17.3Zm27.32,0a1.83,1.83,0,0,1-1.82,1.83H39.16a1.83,1.83,0,0,1-1.82-1.83V49.4h7.29Zm3.64-4.57a.86.86,0,0,1-.91.91H7.29a.86.86,0,0,1-.91-.91V44H48.27Zm0-4.57H6.37V32.94h5.46V12.63A1.64,1.64,0,0,1,13.48,11H41.16a1.64,1.64,0,0,1,1.64,1.65V32.94h5.46v9.15Zm-3.64-11V12.63a3.47,3.47,0,0,0-3.46-3.48H36.43V6.4a.91.91,0,1,0-1.82,0V9.15H31.87V6.4a.91.91,0,1,0-1.82,0V9.15H27.32V6.4a.91.91,0,1,0-1.82,0V9.15H22.77V6.4a.91.91,0,1,0-1.82,0V9.15H18.21V6.4a.91.91,0,1,0-1.82,0V9.15H13.48A3.47,3.47,0,0,0,10,12.63V31.11H8.2V2.74a.86.86,0,0,1,.91-.91H45.53a.86.86,0,0,1,.91.91V31.11Zm8.2-8.23H51V17.38h1.82Z"/><path class="cls-1" d="M31,35.68a.91.91,0,0,0,0-1.83H23.68a.91.91,0,0,0,0,1.83Z"/><path class="cls-1" d="M33.69,37.51H20.95a.91.91,0,0,0,0,1.83H33.7a.91.91,0,0,0,0-1.83Z"/><path class="cls-1" d="M11.84,34.77a2.74,2.74,0,1,0,2.73,2.74A2.69,2.69,0,0,0,11.84,34.77Zm0,3.66a.91.91,0,1,1,.91-.91A.86.86,0,0,1,11.84,38.43Z"/><path class="cls-1" d="M40.07,37.51a2.73,2.73,0,1,0,2.73-2.74A2.69,2.69,0,0,0,40.07,37.51Zm3.64,0a.91.91,0,1,1-.91-.91A.86.86,0,0,1,43.71,37.51Z"/></g></g></svg>