<svg xmlns="http://www.w3.org/2000/svg" viewBox="0 0 14 15"><defs><style>.cls-1{fill:#fff;}</style></defs><title>comparison</title><g id="Слой_2" data-name="Слой 2"><g id="Слой_1-2" data-name="Слой 1"><path class="cls-1" d="M0,14V7A1,1,0,0,1,1,6H1A1,1,0,0,1,2,7v7a1,1,0,0,1-1,1H1A1,1,0,0,1,0,14Z"/><path class="cls-1" d="M4,14V1A1,1,0,0,1,5,0H5A1,1,0,0,1,6,1V14a1,1,0,0,1-1,1H5A1,1,0,0,1,4,14Z"/><path class="cls-1" d="M12,14V10a1,1,0,0,1,1-1h0a1,1,0,0,1,1,1v4a1,1,0,0,1-1,1h0A1,1,0,0,1,12,14Z"/><path class="cls-1" d="M8,14V7A1,1,0,0,1,9,6H9a1,1,0,0,1,1,1v7a1,1,0,0,1-1,1H9A1,1,0,0,1,8,14Z"/></g></g></svg>