<svg xmlns="http://www.w3.org/2000/svg" xmlns:xlink="http://www.w3.org/1999/xlink" viewBox="0 0 21.89 21.93">
    <defs>
        <style>
            .cls-1{fill:none;stroke-linecap:round;stroke-linejoin:round;stroke-width:2px;stroke:url(#Безымянный_градиент);}
        </style>
        <linearGradient id="Безымянный_градиент" x1="10.94" y1="23" x2="10.94" y2="3.07"
                        gradientTransform="matrix(1, 0, 0, -1, 0, 24)" gradientUnits="userSpaceOnUse">
            <stop offset="0" stop-color="#f49020"/>
            <stop offset="1" stop-color="#ff6b00"/>
        </linearGradient>
    </defs>
    <title>Ресурс 1</title>
    <g id="Слой_2" data-name="Слой 2">
        <g id="Слой_1-2" data-name="Слой 1">
            <path class="cls-1"
                  d="M20.89,15.92v3a2,2,0,0,1-2.18,2,19.79,19.79,0,0,1-8.63-3.07,19.5,19.5,0,0,1-6-6A19.79,19.79,0,0,1,1,3.18,2,2,0,0,1,3,1H6A2,2,0,0,1,8,2.72a12.84,12.84,0,0,0,.7,2.81,2,2,0,0,1-.45,2.11L7,8.91a16,16,0,0,0,6,6l1.27-1.27a2,2,0,0,1,2.11-.45,12.84,12.84,0,0,0,2.81.7,2,2,0,0,1,1.72,2Z"/>
        </g>
    </g>
</svg>