<svg xmlns="http://www.w3.org/2000/svg" xmlns:xlink="http://www.w3.org/1999/xlink" viewBox="0 0 22 18">
    <defs>
        <style>.cls-1{fill:url(#Безымянный_градиент);}</style>
        <linearGradient id="Безымянный_градиент" x1="11" y1="20" x2="11" y2="2"
                        gradientTransform="matrix(1, 0, 0, -1, 0, 20)" gradientUnits="userSpaceOnUse">
            <stop offset="0" stop-color="#f49020"/>
            <stop offset="1" stop-color="#ff6b00"/>
        </linearGradient>
    </defs>
    <title>contacts-house</title>
    <g id="Слой_2" data-name="Слой 2">
        <g id="Слой_1-2" data-name="Слой 1">
            <path class="cls-1"
                  d="M21.45,5.11l-10-5a1,1,0,0,0-.89,0l-10,5A1,1,0,0,0,0,6V8A1,1,0,0,0,1,9H2v8a1,1,0,0,0,1,1H19a1,1,0,0,0,1-1V9h1a1,1,0,0,0,1-1V6a1,1,0,0,0-.55-.89ZM14,10H8V9h6ZM8,12h6v1H8Zm0,3h6v1H8ZM20,7H19a1,1,0,0,0-1,1v8H16V8a1,1,0,0,0-1-1H7A1,1,0,0,0,6,8v8H4V8A1,1,0,0,0,3,7H2V6.62l9-4.5,9,4.5Z"/>
        </g>
    </g>
</svg>