<svg xmlns="http://www.w3.org/2000/svg" viewBox="0 0 54.65 54.89"><defs><style>.cls-1{fill:#0097e3;}</style></defs><title>crane</title><g id="Слой_2" data-name="Слой 2"><g id="Слой_1-2" data-name="Слой 1"><path class="cls-1" d="M54.55,18.85,50,9.7a.88.88,0,0,0-.82-.55H23.38L20.58.64A.88.88,0,0,0,19.76,0h-3a.9.9,0,0,0-.91.64L13.05,9.15H10.93V8.23A.86.86,0,0,0,10,7.32H5.46a.86.86,0,0,0-.91.91V11H.91a.86.86,0,0,0-.91.91v1.83A4.52,4.52,0,0,0,4.55,18.3V21a.86.86,0,0,0,.91.91H10a.86.86,0,0,0,.91-.91v-.91h1.82V53.06H7.29a.91.91,0,0,0,0,1.83H33.7a.91.91,0,0,0,0-1.83h-10V20.13H44.62v9.7a6.9,6.9,0,0,0-1.82,4.76v1.1a.86.86,0,0,0,.91.91h.91v1.83a.86.86,0,0,0,.91.91,1.83,1.83,0,1,1-1.82,1.83.91.91,0,1,0-1.82,0,3.64,3.64,0,1,0,4.55-3.54v-1h.91a.86.86,0,0,0,.91-.91v-1.1a7,7,0,0,0-1.82-4.74V20.13h7.29a1.15,1.15,0,0,0,.82-.37A1.07,1.07,0,0,0,54.55,18.85ZM49.63,13l-4,4.85-2.54-3.19L46,11h2.66Zm-33,.29-2.06,1.45V11.82ZM40.14,11h3.5l-1.75,2.2Zm.58,3.66-2.48,3.11-2.48-3.11,2.48-3.11Zm-6.12-1.46L32.86,11h3.5Zm-1.17,1.46L31,17.75l-2.48-3.11L31,11.53Zm-6.12-1.46L25.57,11h3.5Zm-5.46,1.54L19.8,13.27l2.06-1.45Zm-.61,1.81-3,2.44-3-2.44,3-2.13Zm-6.68,2.7v-.84l2.19,1.76-2.19,1.76Zm5.1,22.87,2.19-1.76v3.51Zm1.73,3.75-3.09,2.8-3.19-2.89,3.09-2.48ZM21.86,33v3.51l-2.19-1.76Zm-3.64.59-3.1-2.49,3.1-2.49,3.1,2.49Zm3.1,4.83-3.1,2.49-3.1-2.49,3.1-2.49Zm.55-9.22-2.19-1.76,2.19-1.76Zm-3.64-2.93-3.1-2.49,3.1-2.49,3.1,2.49Zm-1.46,1.17L14.57,29.2V25.69Zm0,7.32-2.19,1.76V33Zm0,7.32-2.18,1.75V40.33Zm.16,7.81L14.57,52V47.78Zm1.35,1.22,2.15,1.94H16.12Zm1.4-1.26,2.19-2v4Zm2.19-30.65v2.67l-2.19-1.76,2.19-1.76Zm1.82-2.53a.8.8,0,0,0,0-.51V11.53l2.48,3.11-2.48,3.11Zm5.39,1.62h-3.5l1.75-2.2Zm5.54-2.2,1.75,2.2h-3.5Zm7.29,0,1.75,2.2h-3.5ZM17.39,1.83h1.73l2.56,7.88-3.47,2.44L14.75,9.71ZM1.82,13.72v-.91H4.55v3.66A2.69,2.69,0,0,1,1.82,13.72Zm7.29,6.4H6.37v-11H9.11v11Zm1.82-1.83V11h1.82V18.3ZM46.44,34.77H44.62v-.18a5.12,5.12,0,0,1,.91-3,5.12,5.12,0,0,1,.91,3v.18ZM47.56,18.3l3-3.55,1.77,3.55Z"/></g></g></svg>