<svg xmlns="http://www.w3.org/2000/svg" viewBox="0 0 36.71 36.74"><defs><style>.cls-1{fill:#fff;}</style></defs><title>cup</title><g id="Слой_2" data-name="Слой 2"><g id="Слой_1-2" data-name="Слой 1"><path class="cls-1" d="M33.49,0H3.23A3.23,3.23,0,0,0,0,3.23V4.87A11.79,11.79,0,0,0,2.57,12.2,12,12,0,0,0,8.1,16l1.14.38A10.72,10.72,0,0,0,15.13,21v1.67a1.08,1.08,0,0,1-1.08,1.08A3.23,3.23,0,0,0,10.83,27v1.08H9.75a1.08,1.08,0,0,0-1.08,1.08v5.45H7.6a1.08,1.08,0,0,0,0,2.15H29.11a1.08,1.08,0,0,0,0-2.15H28V29.13A1.08,1.08,0,0,0,27,28.05H25.89V27a3.23,3.23,0,0,0-3.23-3.23,1.08,1.08,0,0,1-1.08-1.08V21a10.72,10.72,0,0,0,5.89-4.6l1.2-.38h0a11.74,11.74,0,0,0,8-11.14V3.23A3.23,3.23,0,0,0,33.49,0ZM4.25,10.86a9.63,9.63,0,0,1-2.1-6V3.23A1.08,1.08,0,0,1,3.23,2.15H6.64L7.73,12a10.61,10.61,0,0,0,.33,1.69A9.72,9.72,0,0,1,4.25,10.86Zm6.58,23.72V30.21H25.89v4.38Zm9.44-15.45a1.08,1.08,0,0,0-.83,1v2.49a3.23,3.23,0,0,0,3.23,3.23A1.08,1.08,0,0,1,23.73,27v1.08H13V27a1.08,1.08,0,0,1,1.08-1.08,3.23,3.23,0,0,0,3.23-3.23V20.18a1.08,1.08,0,0,0-.83-1,8.54,8.54,0,0,1-6.58-7.36L8.8,2.15H27.91l-1.07,9.62A8.54,8.54,0,0,1,20.27,19.13ZM34.56,4.87a9.59,9.59,0,0,1-5.92,8.86A10.6,10.6,0,0,0,29,12l1.09-9.86h3.41a1.08,1.08,0,0,1,1.08,1.08Z"/><path class="cls-1" d="M22.81,7.37,20.39,7,19.32,4.9a1.08,1.08,0,0,0-1.92,0L16.32,7l-2.42.34a1.08,1.08,0,0,0-.59,1.85L15,10.87l-.41,2.32a1.08,1.08,0,0,0,1.55,1.14l2.17-1.11,2.17,1.11a1.08,1.08,0,0,0,1.55-1.14l-.41-2.32L23.4,9.21a1.08,1.08,0,0,0-.59-1.85Zm-3,2.33a1.08,1.08,0,0,0-.32,1l.13.76-.73-.38a1.07,1.07,0,0,0-1,0l-.73.38.13-.76a1.08,1.08,0,0,0-.32-1l-.54-.52.77-.11A1.07,1.07,0,0,0,18,8.5l.37-.73.37.73a1.08,1.08,0,0,0,.81.58l.77.11Z"/></g></g></svg>