<svg xmlns="http://www.w3.org/2000/svg" viewBox="0 0 54.64 48.49"><defs><style>.cls-1{fill:#0097e3;}</style></defs><title>engine</title><g id="Слой_2" data-name="Слой 2"><g id="Слой_1-2" data-name="Слой 1"><path class="cls-1" d="M24.59,18.3H8.2a1.83,1.83,0,0,0-1.82,1.83H5.46A1.83,1.83,0,0,0,3.64,22v1.83a1.83,1.83,0,0,0,1.82,1.83h.91v5.49H5.46a1.83,1.83,0,0,0-1.82,1.83v1.83A1.83,1.83,0,0,0,5.46,36.6h.91A1.83,1.83,0,0,0,8.2,38.42H24.59a1.83,1.83,0,0,0,1.82-1.83V20.13A1.83,1.83,0,0,0,24.59,18.3ZM6.37,34.77H5.46V32.94h.91Zm0-11H5.46V22h.91ZM8.2,36.6V20.13H24.59V36.6Z"/><path class="cls-1" d="M14.57,30.19H10.93a.91.91,0,0,0,0,1.83h3.64a.91.91,0,0,0,0-1.83Z"/><path class="cls-1" d="M14.57,32.94H10.93a.91.91,0,0,0,0,1.83h3.64a.91.91,0,0,0,0-1.83Z"/><path class="cls-1" d="M21.86,26.53a.91.91,0,0,0-.91.91v1.83a.91.91,0,1,0,1.82,0V27.45A.91.91,0,0,0,21.86,26.53Z"/><path class="cls-1" d="M43.71,16.47H30.05a1.83,1.83,0,0,0-1.82,1.83v7.32a1.83,1.83,0,0,0,1.82,1.83H43.71a1.83,1.83,0,0,0,1.82-1.83V18.3A1.83,1.83,0,0,0,43.71,16.47ZM30.05,25.62V18.3H43.71v7.32Z"/><path class="cls-1" d="M43.71,29.28H30.05a1.83,1.83,0,0,0-1.82,1.83v7.32a1.83,1.83,0,0,0,1.82,1.83H43.71a1.83,1.83,0,0,0,1.82-1.83V31.11A1.83,1.83,0,0,0,43.71,29.28ZM30.05,38.42V31.11H43.71v7.32Z"/><path class="cls-1" d="M38.25,32.94H35.52a.91.91,0,0,0,0,1.83h2.73a.91.91,0,0,0,0-1.83Z"/><path class="cls-1" d="M53.73,46.66H47.36V43.91a1.83,1.83,0,0,0,1.82-1.83V11h2.73a.91.91,0,0,0,.89-.74l1.82-9.15A.91.91,0,0,0,53.73,0H47.36a8.22,8.22,0,0,0-8.2,8.23v4.57H30.05V11a6.4,6.4,0,0,0-6.37-6.4h-.91a.91.91,0,0,0-.91-.91H10.93a.91.91,0,0,0-.91.91H.91A.91.91,0,0,0,0,5.49V9.15a.91.91,0,0,0,.91.91H3.64v2.74H1.82A1.83,1.83,0,0,0,0,14.64V42.08a1.83,1.83,0,0,0,1.82,1.83v2.74H.91a.91.91,0,0,0,0,1.83H53.73a.91.91,0,0,0,0-1.83ZM49.18,1.83h3.44L51.16,9.15h-2ZM41,8.23a6.4,6.4,0,0,1,6.37-6.4V9.15H41ZM41,11h6.37v1.83H41ZM22.77,6.4h.91A4.57,4.57,0,0,1,28.23,11v1.83H22.77ZM11.84,5.49h9.11V9.15H11.84ZM10.93,11h10v1.83H5.46V10.06H10A.91.91,0,0,0,10.93,11ZM1.82,8.23V6.4H10V8.23Zm0,6.4H47.36V42.08H1.82Zm43.71,32H3.64V43.91H45.53v2.74Z"/></g></g></svg>