<svg xmlns="http://www.w3.org/2000/svg" viewBox="0 0 55.67 55"><defs><style>.cls-1{fill:#0097e3;}</style></defs><title>factory</title><g id="Слой_2" data-name="Слой 2"><g id="Слой_1-2" data-name="Слой 1"><path class="cls-1" d="M54.37,30.84l-11.7,5V31.7a.93.93,0,0,0-1.29-.86L28.57,36.36H26V29.25A2.21,2.21,0,0,0,23.77,27h-3a2.21,2.21,0,0,0-2.21,2.22v7.11H14.78L13,12.06a.93.93,0,0,0-.93-.86H6.49a.93.93,0,0,0-.93.86L3.78,36.36h-1a.93.93,0,0,0-.92.83L0,54a.93.93,0,0,0,.92,1H54.74a.93.93,0,0,0,.93-.93V31.7A.93.93,0,0,0,54.37,30.84Zm-34-1.59a.35.35,0,0,1,.35-.35h3a.35.35,0,0,1,.35.35v7.11H20.41Zm-.93,9h8.35V53.14H18.46L16.81,38.22ZM7.36,13.06H11.2l1.72,23.3H5.64ZM3.61,38.22H14.94l.73,6.63.92,8.28H13V46.61a.93.93,0,0,0-.93-.93H6.49a.93.93,0,0,0-.93.93v6.52H2ZM7.42,53.14V47.54h3.71v5.59ZM29.69,37.91l11.13-4.79v20H38V47.54a.93.93,0,0,0-.93-.93H33.4a.93.93,0,0,0-.93.93v5.59H29.69V37.91Zm4.64,15.23V48.48h1.86v4.66Zm14.84,0H47.32V48.48h1.86Zm4.64,0H51V47.54a.93.93,0,0,0-.93-.93H46.39a.93.93,0,0,0-.93.93v5.59H42.68V37.91l11.13-4.79v20Z"/><path class="cls-1" d="M10.54,9.27l.37-.13c.3-.1.64-.21,1-.31A12.55,12.55,0,0,1,14,8.42c1.64-.15,2.52.2,2.69,1.08a9.39,9.39,0,0,0,.2,1.06A11.86,11.86,0,0,0,17.76,13c1.12,2.33,2.91,3.79,5.43,3.79a17.23,17.23,0,0,0,2.91-.14A5.49,5.49,0,0,0,29,15.56a11.09,11.09,0,0,0,4,2.73,5.33,5.33,0,0,0,2.22.36,8.46,8.46,0,0,0,5.18-2.07,13.48,13.48,0,0,0,1.38-1.28,6.47,6.47,0,0,0,4.52,1.49l.78,0A8,8,0,0,0,52.82,3.29L52.58,3A.93.93,0,0,0,51,3.74c0,2.44-.57,3.78-1.44,4.36a1.84,1.84,0,0,1-1.18.32h-.16c-1.74,0-3.52-1.6-5-4A11.18,11.18,0,0,0,40.07,1.1a5,5,0,0,0-3-1.09,8.17,8.17,0,0,0-5.57,2.1c-.2.18-.38.36-.55.54a3.85,3.85,0,0,0-1.86-1.33A6.26,6.26,0,0,0,26.9.94a13.11,13.11,0,0,0-5.35,1,7.34,7.34,0,0,0-1.48.85H18.56a10.35,10.35,0,0,0-7.37,2.58A6.93,6.93,0,0,0,9.32,8.1.93.93,0,0,0,10.54,9.27Zm8-4.6h1.86a.93.93,0,0,0,.65-.27,4.58,4.58,0,0,1,1.24-.74,11.28,11.28,0,0,1,4.6-.85,4.53,4.53,0,0,1,1.54.26,1.6,1.6,0,0,1,1.24,1.6.93.93,0,0,0,1.76.41,3.92,3.92,0,0,1,.28-.46,6.44,6.44,0,0,1,1-1.12,6.34,6.34,0,0,1,4.39-1.63l.17,0s.12,0,.33.08A5.25,5.25,0,0,1,39,2.65a9.34,9.34,0,0,1,2.63,2.8c1.8,2.83,4,4.78,6.52,4.81a3.67,3.67,0,0,0,2.43-.61,5.13,5.13,0,0,0,2-3.38,6.18,6.18,0,0,1-5.55,8.64h-.84A4.06,4.06,0,0,1,45,14.82a5.2,5.2,0,0,1-2.13-1.08q-.23-.19-.45-.41a.93.93,0,0,0-1.39.09c-.07.09-.22.28-.44.51a11.67,11.67,0,0,1-1.27,1.19,6.62,6.62,0,0,1-4,1.66H35.1a3.57,3.57,0,0,1-1.43-.26,9.22,9.22,0,0,1-3.32-2.28l-.93-.93-1.86-1.86a.92.92,0,0,0-1.31,0,.94.94,0,0,0,0,1.32l1.43,1.44a4.23,4.23,0,0,1-1.83.58,15.18,15.18,0,0,1-2.48.13h-.13c-1.75,0-3-1-3.81-2.74a10,10,0,0,1-.71-2.05,8.41,8.41,0,0,1-.17-.91c-.41-2.17-2.21-2.89-4.69-2.66a12.78,12.78,0,0,0-1.44.22A8.54,8.54,0,0,1,18.56,4.67Z"/><path class="cls-1" d="M20.41,50.34a.93.93,0,0,0,.93-.93V42a.93.93,0,1,0-1.86,0v7.46A.93.93,0,0,0,20.41,50.34Z"/><path class="cls-1" d="M25,50.34a.93.93,0,0,0,.93-.93V42a.93.93,0,1,0-1.86,0v7.46A.93.93,0,0,0,25,50.34Z"/><path class="cls-1" d="M33.4,43.82h3.71a.93.93,0,0,0,.93-.93V39.15a.93.93,0,0,0-.93-.93H33.4a.93.93,0,0,0-.93.93v3.73A.93.93,0,0,0,33.4,43.82Zm.93-3.73h1.86V42H34.33Z"/><path class="cls-1" d="M46.39,43.82H50.1a.93.93,0,0,0,.93-.93V39.15a.93.93,0,0,0-.93-.93H46.39a.93.93,0,0,0-.93.93v3.73A.93.93,0,0,0,46.39,43.82Zm.93-3.73h1.86V42H47.32Z"/></g></g></svg>