<svg xmlns="http://www.w3.org/2000/svg" viewBox="0 0 54.64 54.89">
    <defs>
        <style>.cls-1{fill:#0097e3;}</style>
    </defs>
    <title>house</title>
    <g id="Слой_2" data-name="Слой 2">
        <g id="Слой_1-2" data-name="Слой 1">
            <path class="cls-1"
                  d="M11.84,31.11H8.2a1.83,1.83,0,0,0-1.82,1.83V36.6A1.83,1.83,0,0,0,8.2,38.43h3.64a1.83,1.83,0,0,0,1.82-1.83V32.94A1.83,1.83,0,0,0,11.84,31.11ZM8.2,36.6V32.94h3.64V36.6H8.2Z"/>
            <path class="cls-1"
                  d="M17.3,38.42h3.64a1.83,1.83,0,0,0,1.82-1.83V32.94a1.83,1.83,0,0,0-1.82-1.83H17.3a1.83,1.83,0,0,0-1.82,1.83V36.6A1.83,1.83,0,0,0,17.3,38.42Zm0-5.49h3.64V36.6H17.3Z"/>
            <path class="cls-1"
                  d="M17.3,50.32h3.64a1.83,1.83,0,0,0,1.82-1.83V44.83A1.83,1.83,0,0,0,20.95,43H17.3a1.83,1.83,0,0,0-1.82,1.83v3.66A1.83,1.83,0,0,0,17.3,50.32Zm0-5.49h3.64v3.66H17.3Z"/>
            <path class="cls-1"
                  d="M35.15,20.86l-4.1-5.49a1.83,1.83,0,0,0-1.46-.73h-5a1.83,1.83,0,0,0-1.46,2.93l4.1,5.49a1.83,1.83,0,0,0,1.46.73h5a1.83,1.83,0,0,0,1.46-2.93ZM28.69,22l-4.1-5.49h5L33.7,22Z"/>
            <path class="cls-1"
                  d="M33.7,31.11H30.05a1.83,1.83,0,0,0-1.82,1.83V36.6a1.83,1.83,0,0,0,1.82,1.83H33.7a1.83,1.83,0,0,0,1.82-1.83V32.94A1.83,1.83,0,0,0,33.7,31.11ZM30.05,36.6V32.94H33.7V36.6H30.05Z"/>
            <path class="cls-1"
                  d="M33.7,43H30.05a1.83,1.83,0,0,0-1.82,1.83v3.66a1.83,1.83,0,0,0,1.82,1.83H33.7a1.83,1.83,0,0,0,1.82-1.83V44.83A1.83,1.83,0,0,0,33.7,43Zm-3.64,5.49V44.83H33.7v3.66Z"/>
            <path class="cls-1"
                  d="M48.27,36.6V32.94a1.83,1.83,0,0,0-1.82-1.83H39.16a1.83,1.83,0,0,0-1.82,1.83V36.6a1.83,1.83,0,0,0,1.82,1.83h7.29A1.83,1.83,0,0,0,48.27,36.6Zm-9.11-3.66h7.29V36.6H39.16V32.94Z"/>
            <path class="cls-1"
                  d="M51.91,47V26.53a.91.91,0,0,0-.07-.32l-.05-.1L51.73,26l-7.1-9.51h5.46a4.58,4.58,0,0,0,.86-9.07,6.37,6.37,0,0,0-12.64,0A4.57,4.57,0,0,0,34.71,11h-13a4.53,4.53,0,0,0,.1-.91,4.58,4.58,0,0,0-3.7-4.49,6.37,6.37,0,0,0-12.64,0,4.58,4.58,0,0,0,.86,9.07h5L2.91,26a.92.92,0,0,0-.18.55V53.06H.91a.91.91,0,0,0,0,1.83H53.73a.91.91,0,0,0,.91-.92V51.23A4.58,4.58,0,0,0,51.91,47ZM39.16,9.15a.91.91,0,0,0,.91-.91,4.55,4.55,0,1,1,9.11,0,.91.91,0,0,0,.91.91,2.74,2.74,0,0,1,0,5.49H43.26L40.8,11.34a.91.91,0,0,0-.73-.37H36.59A2.73,2.73,0,0,1,39.16,9.15ZM6.37,12.81a2.74,2.74,0,0,1,0-5.49.91.91,0,0,0,.91-.91,4.55,4.55,0,1,1,9.11,0,.91.91,0,0,0,.91.91A2.74,2.74,0,0,1,20,10.06a2.69,2.69,0,0,1-.18.91H14.57a.89.89,0,0,0-.69.33l0,0-1.09,1.46Zm5.46,40.25H8.2V44.83h3.64Zm12.75,0H13.66V44.83A1.83,1.83,0,0,0,11.84,43H8.2a1.83,1.83,0,0,0-1.82,1.83v8.23H4.55V26.84l10-13.42,10,13.42Zm-8.2-40.25H39.61l9.56,12.81H26ZM37.34,51.23v1.83H26.41V27.45H50.09V44.23A5,5,0,0,0,41,46.75,4.58,4.58,0,0,0,37.34,51.23Zm15.48,1.83H39.16V51.23a2.75,2.75,0,0,1,2.76-2.74H42l.12,0a1,1,0,0,0,.43-.25.89.89,0,0,0,.15-.22l0-.05a.89.89,0,0,0,.06-.32v0h0a.86.86,0,0,0,0-.11,2.69,2.69,0,0,1,0-.34,3.19,3.19,0,1,1,6.37,0,2.69,2.69,0,0,1,0,.34.85.85,0,0,0,0,.11h0v0a.89.89,0,0,0,.07.34h0a.89.89,0,0,0,.19.28h0a.88.88,0,0,0,.26.17l.08,0a.53.53,0,0,0,.27.06h0a2.74,2.74,0,0,1,2.73,2.74v1.83Z"/>
        </g>
    </g>
</svg>
