<svg xmlns="http://www.w3.org/2000/svg" viewBox="0 0 109 35">
    <defs>
        <style>.cls-1{fill:#086eb3;}.cls-2{fill:#f49020;}</style>
    </defs>
    <title>logo-small</title>
    <g id="Слой_2" data-name="Слой 2">
        <g id="Слой_1-2" data-name="Слой 1">
            <path class="cls-1" fill="#086eb3"
                  d="M91.24,10.14l5.37,11.69L99,16.59h6L99.63,28.28c-1.6,3.42-4,6.52-8.13,6.52a13.16,13.16,0,0,1-3.2-.39v-5.1a4.59,4.59,0,0,0,2.37.58,2.21,2.21,0,0,0,2.43-2.26,5.32,5.32,0,0,0-.64-1.94L87.72,15.37h-6v19.5H75.25V10.14ZM14.72,4A14.79,14.79,0,0,1,29.43,18.85a8.73,8.73,0,0,1-.06,1.29L25,20.79a9.3,9.3,0,0,0,.19-1.87A10.41,10.41,0,0,0,15.23,8.46l-1-4.33A.76.76,0,0,1,14.72,4ZM28.41,24.34a14.85,14.85,0,0,1-5.12,6.59,1.4,1.4,0,0,1-.32.19l1.73,3.75H18l-.51-.78,1.79-5.75a11,11,0,0,0,4.29-3.94h4.8ZM7.1,11.75a8.77,8.77,0,0,0-1.73,2.52L1.6,12.2A14.69,14.69,0,0,1,9.53,5ZM15.55,34H11.84l-.51.77H4.73l1.73-3.75c-.06-.06-.19-.06-.26-.13A14.64,14.64,0,0,1,0,18.85a16.55,16.55,0,0,1,.64-4.39l4.73,9A10.49,10.49,0,0,0,14,29.38Zm25.59.84h-6.4V24.34h6.46V34.87Zm-6.4-15.44v-9.3h6.46v8.4Zm12.86-9.3h6.46v6.65l-6.46.9Zm6.46,14.21V34.81H47.61V24.34Zm9-4.2L61.3,24h3.9a2.65,2.65,0,0,1,2.62,2.65c0,2.07-1.22,3.1-3.33,3.1s-2.94-1-3.14-2.2H55c.58,5.1,4.73,7.43,9.66,7.43s9.53-2.13,9.53-8.2a5.59,5.59,0,0,0-4-5.3,5,5,0,0,0,3.14-4.59c0-4.78-4-7.1-8.51-7.1s-8.45,2.13-8.89,6.65l6.14-.84a3.16,3.16,0,0,1,2.43-1,2.76,2.76,0,0,1,3.14,2.84A2.58,2.58,0,0,1,65.07,20h-2Z"/>
            <path class="cls-2" fill="#f49020"
                  d="M100.32,15.71,103,10.28h6l-1.74,3.66ZM1.64,13H1l5.91,9.4,3.79-6.88L17,34l4.56-14.26L24,23.34H58.86l3.34-6.69L25,21.57l-4-9.59-3.21,8.89L12.7,0,6,18.23Z"/>
        </g>
    </g>
</svg>
