<svg width="274" height="37" viewBox="0 0 274 37" fill="none" xmlns="http://www.w3.org/2000/svg">
<path fill-rule="evenodd" clip-rule="evenodd" d="M91.2431 10.1354L96.6179 21.825L98.9854 16.5938H105L99.6252 28.2833C98.0256 31.7063 95.6581 34.8062 91.4991 34.8062C90.4113 34.8062 89.3236 34.6771 88.2998 34.4188V29.3167C89.1316 29.7687 89.8355 29.8979 90.6673 29.8979C92.075 29.8979 93.0987 29.0583 93.0987 27.6375C93.0987 26.9917 92.7148 26.2812 92.4589 25.7L87.7239 15.3667H81.7093V34.8708H75.2468V10.1354C80.5576 10.1354 85.9324 10.1354 91.2431 10.1354ZM14.7166 4C22.8428 4 29.4333 10.6521 29.4333 18.8542C29.4333 19.3062 29.4333 19.6937 29.3693 20.1458L24.9543 20.7917C25.0823 20.1458 25.1462 19.5646 25.1462 18.9187C25.1462 13.3 20.7313 8.65 15.2285 8.45625L14.2048 4.12917C14.3967 4 14.5247 4 14.7166 4ZM28.4095 24.3438C27.3857 26.9917 25.5302 29.3167 23.2907 30.9312C23.2267 30.9958 23.0987 31.0604 22.9707 31.125L24.6984 34.8708H18.0439L17.532 34.0958L19.3236 28.3479C21.0512 27.4438 22.5868 26.0875 23.6106 24.4083H28.4095V24.3438ZM7.10238 11.75C6.39854 12.4604 5.82267 13.3 5.37477 14.2688L1.59963 12.2021C3.26325 8.90833 6.07861 6.325 9.53382 5.03333L7.10238 11.75ZM15.5484 34.0312H11.8373L11.3254 34.8062H4.73492L6.46252 31.0604C6.39854 30.9958 6.27057 30.9958 6.20658 30.9312C2.43144 28.2833 0 23.8917 0 18.8542C0 17.3042 0.255941 15.8833 0.639854 14.4625L5.37477 23.5042C7.03839 26.8625 10.3016 29.1229 14.0128 29.3812L15.5484 34.0312ZM41.1426 34.8708H34.7441V24.3438H41.2066V34.8708H41.1426ZM34.7441 19.4354V10.1354H41.2066V18.5312L34.7441 19.4354ZM47.6051 10.1354H54.0676V16.7875L47.6051 17.6917V10.1354ZM54.0676 24.3438V34.8062H47.6051V24.3438H54.0676ZM63.0896 20.1458L61.298 24.0208H63.0896H65.2011C66.6088 24.0208 67.8245 25.1833 67.8245 26.6688C67.8245 28.7354 66.6088 29.7688 64.4973 29.7688C62.5137 29.7688 61.5539 28.7354 61.362 27.5729H55.0274C55.6033 32.675 59.7623 35 64.6892 35C69.6161 35 74.223 32.8687 74.223 26.7979C74.223 23.9562 71.9196 21.825 70.1919 21.5021C71.7276 21.1146 73.3272 19.0479 73.3272 16.9167C73.3272 12.1375 69.3601 9.8125 64.8172 9.8125C60.2742 9.8125 56.3711 11.9437 55.9232 16.4646L62.0658 15.625C62.6417 14.9146 63.4735 14.6563 64.4973 14.5917C66.2888 14.5271 67.6325 15.5604 67.6325 17.4333C67.6325 18.8542 66.4808 20.0167 65.0731 20.0167H63.0896V20.1458Z" fill="#086EB3"/>
<path fill-rule="evenodd" clip-rule="evenodd" d="M100.321 15.7069L102.957 10.282H109L107.264 13.9406L100.321 15.7069ZM1.64286 12.9944H1L6.91429 22.3933L10.7071 15.5176L17.0071 34L21.5714 19.744L23.95 23.3395H58.8571L62.2 16.6531L24.9786 21.5733L20.9286 11.9852L17.7143 20.8794L12.7 0L6.01429 18.2301L1.64286 12.9944Z" fill="#F49020"/>
<path d="M119.993 14.7436V18.7902H118.129V9.71795H119.993V13.1772H123.466V9.71795H125.331V18.7902H123.466V14.7436H119.993ZM129.961 18.986C129.382 18.986 128.803 18.8555 128.289 18.5944C127.774 18.3333 127.389 17.9417 127.067 17.4196C126.746 16.8974 126.617 16.2448 126.617 15.4615C126.617 14.8741 126.681 14.352 126.874 13.8951C127.067 13.4382 127.324 13.1119 127.582 12.7855C127.903 12.4592 128.225 12.2634 128.675 12.1329C129.061 12.0023 129.511 11.9371 129.961 11.9371C130.411 11.9371 130.861 12.0023 131.247 12.1329C131.633 12.2634 132.019 12.4592 132.34 12.7855C132.662 13.1119 132.919 13.4382 133.112 13.8951C133.305 14.352 133.369 14.8741 133.369 15.4615C133.369 16.049 133.305 16.5711 133.112 17.028C132.919 17.4848 132.662 17.8112 132.34 18.1375C132.019 18.4639 131.697 18.6597 131.247 18.7902C130.861 18.8555 130.475 18.986 129.961 18.986ZM129.961 13.373C129.382 13.373 128.932 13.5688 128.739 13.9604C128.482 14.352 128.418 14.8089 128.418 15.3963C128.418 15.9837 128.546 16.4406 128.739 16.8322C128.932 17.2238 129.382 17.4196 129.961 17.4196C130.54 17.4196 130.99 17.2238 131.183 16.8322C131.44 16.4406 131.504 15.9184 131.504 15.3963C131.504 14.8089 131.376 14.352 131.183 13.9604C130.99 13.5688 130.604 13.373 129.961 13.373ZM134.591 18.7902V12.0676H137.356C139.157 12.0676 140.057 12.655 140.057 13.8298C140.057 14.2214 139.928 14.5478 139.671 14.8089C139.414 15.0699 139.092 15.2657 138.706 15.2657C138.964 15.331 139.221 15.3963 139.478 15.5268C139.735 15.6573 139.928 15.7879 140.057 16.049C140.25 16.31 140.314 16.5711 140.314 16.8974C140.314 17.5501 140.057 18.007 139.542 18.3333C139.028 18.6597 138.385 18.7902 137.549 18.7902H134.591ZM136.327 15.9184V17.6154H137.485C137.806 17.6154 138.063 17.5501 138.256 17.4196C138.449 17.289 138.514 17.0932 138.514 16.8322C138.514 16.5711 138.449 16.31 138.256 16.1795C138.063 16.049 137.806 15.9837 137.485 15.9837H136.327V15.9184ZM136.327 13.2424V14.8089H137.356C137.678 14.8089 137.87 14.7436 138.063 14.6131C138.256 14.4825 138.321 14.2867 138.321 14.0256C138.321 13.5035 137.999 13.2424 137.356 13.2424H136.327ZM144.494 18.986C143.851 18.986 143.336 18.8555 142.822 18.5944C142.308 18.3333 141.922 17.9417 141.6 17.4196C141.279 16.8974 141.15 16.2448 141.15 15.4615C141.15 14.8741 141.214 14.352 141.407 13.8951C141.6 13.4382 141.857 13.1119 142.179 12.7855C142.5 12.4592 142.822 12.2634 143.272 12.1329C143.658 12.0023 144.108 11.9371 144.558 11.9371C145.008 11.9371 145.459 12.0023 145.844 12.1329C146.23 12.2634 146.616 12.4592 146.938 12.7855C147.259 13.1119 147.516 13.4382 147.709 13.8951C147.902 14.352 147.966 14.8741 147.966 15.4615C147.966 16.049 147.902 16.5711 147.709 17.028C147.516 17.4848 147.259 17.8112 146.938 18.1375C146.616 18.4639 146.294 18.6597 145.844 18.7902C145.394 18.8555 144.944 18.986 144.494 18.986ZM144.494 13.373C143.915 13.373 143.465 13.5688 143.272 13.9604C143.015 14.352 142.951 14.8089 142.951 15.3963C142.951 15.9837 143.079 16.4406 143.272 16.8322C143.465 17.2238 143.915 17.4196 144.494 17.4196C145.073 17.4196 145.523 17.2238 145.716 16.8322C145.973 16.4406 146.037 15.9184 146.037 15.3963C146.037 14.8089 145.909 14.352 145.716 13.9604C145.523 13.5688 145.073 13.373 144.494 13.373ZM154.783 16.31C154.719 16.5058 154.719 16.7669 154.59 17.0932C154.526 17.4196 154.333 17.6807 154.14 17.9417C153.947 18.2028 153.625 18.4639 153.24 18.6597C152.854 18.8555 152.339 18.9207 151.825 18.9207C151.246 18.9207 150.732 18.8555 150.346 18.5944C149.96 18.3986 149.638 18.1375 149.445 17.8112C149.188 17.4848 149.06 17.1585 148.931 16.7669C148.867 16.3753 148.802 15.9837 148.802 15.5921C148.802 14.8089 148.931 14.1562 149.124 13.634C149.317 13.0466 149.703 12.655 150.153 12.3287C150.603 12.0023 151.182 11.8718 151.953 11.8718C152.404 11.8718 152.789 11.9371 153.24 12.1329C153.69 12.2634 154.011 12.5245 154.333 12.9161C154.654 13.3077 154.847 13.8298 154.911 14.4825H153.175C153.047 13.7646 152.661 13.4382 152.018 13.4382C151.696 13.4382 151.439 13.5035 151.182 13.7646C150.989 13.9604 150.86 14.2214 150.732 14.4825C150.667 14.8089 150.603 15.0699 150.603 15.3963C150.603 15.7879 150.667 16.1142 150.667 16.3753C150.732 16.7016 150.86 16.9627 151.053 17.1585C151.246 17.3543 151.568 17.5501 151.953 17.5501C152.211 17.5501 152.468 17.4848 152.596 17.3543C152.789 17.2238 152.918 17.028 152.982 16.8974C153.047 16.7016 153.111 16.5711 153.111 16.4406H154.783V16.31ZM161.985 18.7902H160.249V14.7436L157.87 18.7902H156.005V12.0676H157.741V16.1142L160.12 12.0676H161.985V18.7902ZM164.622 10.0443C164.943 9.78322 165.329 9.58741 165.779 9.45688C166.229 9.39161 166.808 9.32634 167.58 9.32634C167.837 9.32634 167.966 9.26107 168.03 9.1958C168.094 9.13054 168.158 9.06527 168.158 9H169.573C169.573 9.1958 169.573 9.32634 169.509 9.58741C169.445 9.78322 169.38 10.0443 169.187 10.2401C168.994 10.4359 168.737 10.6317 168.416 10.7622C168.223 10.8275 167.837 10.8928 167.451 10.958C167.001 11.0233 166.679 11.0233 166.358 11.0886C166.036 11.1538 165.779 11.2191 165.586 11.2844C165.265 11.4802 165.072 11.676 165.007 11.8718C164.879 12.0676 164.815 12.3939 164.686 12.7855C164.879 12.5245 165.2 12.2634 165.522 12.1329C165.908 11.9371 166.229 11.8065 166.615 11.8065C167.065 11.8065 167.515 11.8718 167.901 12.0023C168.351 12.1329 168.673 12.3287 168.994 12.655C169.316 12.9814 169.573 13.3077 169.702 13.7646C169.895 14.2214 169.959 14.7436 169.959 15.331C169.959 15.9184 169.895 16.4406 169.702 16.8974C169.509 17.3543 169.252 17.6807 168.994 18.007C168.673 18.3333 168.351 18.5291 167.901 18.6597C167.515 18.7902 167.065 18.8555 166.615 18.8555C166.165 18.8555 165.715 18.7902 165.329 18.6597C164.943 18.5291 164.557 18.2681 164.236 18.007C163.914 17.7459 163.657 17.3543 163.528 16.8974C163.4 16.4406 163.271 15.9184 163.207 15.331V14.9394C163.207 13.634 163.335 12.5245 163.528 11.7413C163.786 11.0886 164.171 10.5012 164.622 10.0443ZM166.615 13.373C166.036 13.373 165.586 13.5688 165.393 13.9604C165.136 14.352 165.072 14.8089 165.072 15.3963C165.072 15.9837 165.2 16.4406 165.393 16.8322C165.651 17.2238 166.036 17.4196 166.615 17.4196C167.194 17.4196 167.644 17.2238 167.901 16.8322C168.094 16.4406 168.223 15.9184 168.223 15.3963C168.223 14.8089 168.094 14.352 167.901 13.9604C167.644 13.5688 167.194 13.373 166.615 13.373ZM177.161 18.7902H175.425V14.7436L173.046 18.7902H171.181V12.0676H172.917V16.1142L175.296 12.0676H177.161V18.7902ZM180.441 13.0466C180.698 12.7203 180.955 12.4592 181.212 12.1981C181.534 12.0023 181.92 11.8718 182.434 11.8718C182.82 11.8718 183.142 11.9371 183.463 12.0676C183.785 12.1981 184.106 12.4592 184.363 12.7203C184.621 13.0466 184.814 13.373 184.942 13.8298C185.071 14.2867 185.135 14.7436 185.135 15.331C185.135 15.9837 185.071 16.5711 184.814 17.0932C184.621 17.6807 184.299 18.0723 183.913 18.3986C183.463 18.7249 183.013 18.9207 182.37 18.9207C181.534 18.9207 180.891 18.5944 180.505 17.8765V21.3357H178.769V12.0676H180.441V13.0466ZM181.984 17.4848C182.306 17.4848 182.627 17.3543 182.82 17.1585C183.013 16.9627 183.206 16.7016 183.27 16.3753C183.335 16.049 183.399 15.7879 183.399 15.4615C183.399 14.8741 183.27 14.4172 183.077 13.9604C182.82 13.5688 182.434 13.373 181.92 13.373C180.955 13.373 180.441 14.0909 180.441 15.5268C180.441 16.049 180.569 16.5058 180.827 16.8974C181.084 17.3543 181.47 17.4848 181.984 17.4848ZM192.08 16.31C192.016 16.5058 192.016 16.7669 191.887 17.0932C191.823 17.4196 191.63 17.6807 191.437 17.9417C191.244 18.2028 190.923 18.4639 190.537 18.6597C190.151 18.8555 189.637 18.9207 189.122 18.9207C188.543 18.9207 188.029 18.8555 187.643 18.5944C187.257 18.3986 186.936 18.1375 186.743 17.8112C186.486 17.4848 186.357 17.1585 186.228 16.7669C186.164 16.3753 186.1 15.9837 186.1 15.5921C186.1 14.8089 186.228 14.1562 186.421 13.634C186.678 13.0466 187 12.655 187.45 12.3287C187.9 12.0023 188.479 11.8718 189.251 11.8718C189.701 11.8718 190.087 11.9371 190.537 12.1329C190.987 12.2634 191.308 12.5245 191.63 12.9161C191.952 13.3077 192.144 13.8298 192.209 14.4825H190.472C190.344 13.7646 189.958 13.4382 189.315 13.4382C188.993 13.4382 188.736 13.5035 188.479 13.7646C188.286 13.9604 188.157 14.2214 188.029 14.4825C187.965 14.8089 187.9 15.0699 187.9 15.3963C187.9 15.7879 187.965 16.1142 187.965 16.3753C188.029 16.7016 188.157 16.9627 188.35 17.1585C188.543 17.4196 188.865 17.5501 189.251 17.5501C189.508 17.5501 189.765 17.4848 189.894 17.3543C190.087 17.2238 190.215 17.028 190.28 16.8974C190.344 16.7016 190.408 16.5711 190.408 16.4406H192.08V16.31ZM195.038 18.7902H193.302V12.0676H195.038V14.6131L197.225 12.0676H199.411L197.032 14.6783L199.475 18.7902H197.353L195.746 15.9184L195.038 16.7016V18.7902ZM206.163 18.7902H204.427V14.7436L202.048 18.7902H200.183V12.0676H201.919V16.1142L204.298 12.0676H206.163V18.7902ZM213.751 18.7902H212.015V14.7436L209.636 18.7902H207.771V12.0676H209.507V16.1142L211.886 12.0676H213.751V18.7902ZM212.979 9.32634C212.915 9.78322 212.787 10.1748 212.465 10.5664C212.144 10.958 211.565 11.1538 210.793 11.1538C210.086 11.1538 209.571 10.958 209.25 10.5664C208.993 10.1748 208.8 9.78322 208.8 9.32634H209.636C209.7 9.58741 209.829 9.78322 209.957 9.97902C210.15 10.1748 210.407 10.2401 210.857 10.2401C211.243 10.2401 211.5 10.1748 211.758 10.0443C212.015 9.91375 212.144 9.71795 212.208 9.32634H212.979ZM225.519 15.2657C226.677 15.3963 227.255 15.9184 227.255 16.7669C227.255 17.3543 227.127 17.7459 226.805 18.0723C226.484 18.3986 226.098 18.5944 225.648 18.7249C225.198 18.8555 224.747 18.9207 224.362 18.9207C223.526 18.9207 222.754 18.7249 222.111 18.3986C221.532 18.007 221.211 17.4196 221.146 16.6364H222.947C222.947 17.289 223.397 17.6154 224.362 17.6154C224.747 17.6154 225.005 17.5501 225.198 17.3543C225.39 17.1585 225.455 16.9627 225.455 16.7669C225.455 16.5058 225.326 16.31 225.133 16.1795C224.94 16.049 224.619 15.9837 224.297 15.9837H223.075V14.8089H224.297C224.619 14.8089 224.812 14.7436 225.005 14.6131C225.198 14.4825 225.262 14.2867 225.262 14.0256C225.262 13.5035 224.876 13.2424 224.169 13.2424C223.719 13.2424 223.461 13.3077 223.333 13.4382C223.14 13.634 223.075 13.8298 223.011 14.0909H221.339C221.468 12.5897 222.432 11.8718 224.297 11.8718C224.94 11.8718 225.455 12.0023 225.841 12.1981C226.226 12.3939 226.484 12.655 226.677 12.9814C226.87 13.3077 226.934 13.634 226.934 14.0256C226.998 14.6783 226.548 15.1352 225.519 15.2657ZM233.879 17.4848C233.879 17.8765 233.943 18.0723 234.007 18.2681C234.072 18.3986 234.2 18.5291 234.329 18.5291V18.7902H232.464C232.4 18.5291 232.335 18.2681 232.335 18.007C232.014 18.3333 231.757 18.5291 231.435 18.7249C231.114 18.9207 230.728 18.986 230.149 18.986C229.828 18.986 229.506 18.9207 229.185 18.7902C228.863 18.6597 228.606 18.4639 228.477 18.1375C228.284 17.8112 228.156 17.4848 228.156 17.028C228.156 16.5711 228.22 16.2448 228.413 15.9184C228.606 15.5921 228.799 15.331 229.056 15.2005C229.377 15.0047 229.699 14.9394 230.085 14.8741L231.628 14.6131C232.014 14.5478 232.207 14.352 232.207 14.0909C232.207 13.7646 232.078 13.5688 231.885 13.4382C231.692 13.3077 231.371 13.3077 231.049 13.3077C230.664 13.3077 230.406 13.373 230.278 13.5688C230.149 13.7646 230.02 13.9604 230.02 14.2214H228.349C228.413 13.5688 228.606 13.1119 228.863 12.7203C229.185 12.3939 229.506 12.1329 229.892 12.0676C230.278 12.0023 230.792 11.8718 231.307 11.8718C231.692 11.8718 232.078 11.9371 232.464 12.0676C232.85 12.1981 233.236 12.3939 233.493 12.655C233.75 12.9814 233.943 13.3077 233.943 13.8298V17.4848H233.879ZM232.207 15.5268C232.014 15.6573 231.628 15.7879 231.049 15.9184C230.792 15.9837 230.599 15.9837 230.406 16.1142C230.213 16.1795 230.085 16.31 230.02 16.4406C229.892 16.5711 229.828 16.7669 229.828 16.9627C229.828 17.2238 229.892 17.4196 230.085 17.5501C230.278 17.6807 230.471 17.7459 230.664 17.7459C230.921 17.7459 231.178 17.6807 231.435 17.5501C231.692 17.4196 231.885 17.289 232.014 17.0932C232.143 16.8974 232.207 16.6364 232.207 16.3753V15.5268ZM235.486 18.7902V12.0676H238.187C239.988 12.0676 240.888 12.655 240.888 13.8298C240.888 14.2214 240.76 14.5478 240.502 14.8089C240.245 15.0699 239.924 15.2657 239.538 15.2657C239.795 15.331 240.052 15.3963 240.309 15.5268C240.567 15.6573 240.76 15.7879 240.888 16.049C241.081 16.31 241.145 16.5711 241.145 16.8974C241.145 17.5501 240.888 18.007 240.374 18.3333C239.859 18.6597 239.216 18.7902 238.38 18.7902H235.486ZM237.223 15.9184V17.6154H238.38C238.702 17.6154 238.959 17.5501 239.152 17.4196C239.345 17.289 239.409 17.0932 239.409 16.8322C239.409 16.5711 239.345 16.31 239.152 16.1795C238.959 16.049 238.702 15.9837 238.38 15.9837H237.223V15.9184ZM237.223 13.2424V14.8089H238.252C238.573 14.8089 238.83 14.7436 238.959 14.6131C239.152 14.4825 239.216 14.2867 239.216 14.0256C239.216 13.5035 238.895 13.2424 238.252 13.2424H237.223ZM245.325 18.986C244.746 18.986 244.168 18.8555 243.653 18.5944C243.139 18.3333 242.753 17.9417 242.431 17.4196C242.11 16.8974 241.981 16.2448 241.981 15.4615C241.981 14.8741 242.046 14.352 242.239 13.8951C242.431 13.4382 242.689 13.1119 242.946 12.7855C243.267 12.4592 243.589 12.2634 244.039 12.1329C244.489 12.0023 244.875 11.9371 245.325 11.9371C245.775 11.9371 246.226 12.0023 246.611 12.1329C246.997 12.2634 247.383 12.4592 247.705 12.7855C248.026 13.1119 248.283 13.4382 248.476 13.8951C248.669 14.352 248.733 14.8741 248.733 15.4615C248.733 16.049 248.669 16.5711 248.476 17.028C248.283 17.4848 248.026 17.8112 247.705 18.1375C247.383 18.4639 247.062 18.6597 246.611 18.7902C246.226 18.8555 245.775 18.986 245.325 18.986ZM245.325 13.373C244.746 13.373 244.296 13.5688 244.103 13.9604C243.846 14.352 243.782 14.8089 243.782 15.3963C243.782 15.9837 243.911 16.4406 244.103 16.8322C244.296 17.2238 244.746 17.4196 245.325 17.4196C245.904 17.4196 246.354 17.2238 246.547 16.8322C246.804 16.4406 246.869 15.9184 246.869 15.3963C246.869 14.8089 246.74 14.352 246.547 13.9604C246.354 13.5688 245.968 13.373 245.325 13.373ZM250.148 15.2657V12.0676H255.228V17.3543H256V20.4219H254.392V18.7249H250.727V20.4219H249.119V17.3543C249.312 17.3543 249.505 17.289 249.698 17.1585C249.827 17.028 249.955 16.8322 250.02 16.5058C250.084 16.2448 250.148 15.8531 250.148 15.2657ZM253.492 17.3543V13.4382H251.756V15.2657C251.756 16.31 251.563 16.9627 251.306 17.289H253.492V17.3543ZM122.501 29.0373H119.736V34.324H118V27.6014H122.501V29.0373ZM129.253 32.366C129.061 33.0839 128.675 33.6713 128.096 33.9977C127.517 34.324 126.938 34.5198 126.295 34.5198C125.845 34.5198 125.395 34.4545 125.009 34.324C124.623 34.1935 124.238 33.9977 123.98 33.6713C123.659 33.345 123.466 33.0186 123.273 32.4965C123.08 32.0396 123.016 31.4522 123.016 30.7995C123.016 30.5385 123.08 30.2121 123.144 29.8205C123.209 29.4942 123.337 29.1026 123.595 28.711C123.788 28.3193 124.109 28.0583 124.559 27.7972C125.009 27.5361 125.524 27.4056 126.231 27.4056C126.617 27.4056 126.938 27.4709 127.324 27.6014C127.646 27.7319 128.032 27.9277 128.289 28.1888C128.61 28.4499 128.868 28.8415 129.061 29.3636C129.253 29.8858 129.382 30.4732 129.382 31.1911V31.5175H124.816C124.816 31.7786 124.881 32.0396 124.945 32.2354C125.009 32.4965 125.138 32.6923 125.395 32.8881C125.588 33.0839 125.974 33.1492 126.36 33.1492C126.617 33.1492 126.874 33.0839 127.067 32.9534C127.26 32.8228 127.389 32.627 127.453 32.4312H129.253V32.366ZM127.582 30.3427C127.517 29.8205 127.389 29.4942 127.131 29.2984C126.874 29.1026 126.553 28.972 126.231 28.972C125.459 28.972 124.945 29.4289 124.881 30.4079H127.582V30.3427ZM136.456 34.324H134.719V31.648H132.212V34.324H130.475V27.6014H132.212V30.2774H134.719V27.6014H136.456V34.324ZM143.787 32.366C143.594 33.0839 143.208 33.6713 142.693 33.9977C142.115 34.324 141.536 34.5198 140.893 34.5198C140.378 34.5198 139.993 34.4545 139.542 34.324C139.157 34.1935 138.835 33.9977 138.514 33.6713C138.192 33.345 137.999 33.0186 137.87 32.4965C137.678 32.0396 137.613 31.4522 137.613 30.7995C137.613 30.5385 137.678 30.2121 137.742 29.8205C137.806 29.4942 137.935 29.1026 138.192 28.711C138.385 28.3193 138.706 28.0583 139.157 27.7972C139.607 27.5361 140.121 27.4056 140.829 27.4056C141.214 27.4056 141.536 27.4709 141.922 27.6014C142.308 27.7319 142.629 27.9277 142.951 28.1888C143.272 28.4499 143.529 28.8415 143.722 29.3636C143.915 29.8858 144.044 30.4732 144.044 31.1911V31.5175H139.478C139.478 31.7786 139.542 32.0396 139.607 32.2354C139.671 32.4965 139.8 32.6923 140.057 32.8881C140.314 33.0839 140.636 33.1492 141.021 33.1492C141.279 33.1492 141.536 33.0839 141.729 32.9534C141.922 32.8228 142.05 32.627 142.115 32.4312H143.787V32.366ZM142.05 30.3427C141.986 29.8205 141.857 29.4942 141.6 29.2984C141.343 29.1026 141.021 28.972 140.7 28.972C139.928 28.972 139.414 29.4289 139.349 30.4079H142.05V30.3427ZM146.616 28.5804C146.873 28.2541 147.066 27.9277 147.388 27.7319C147.709 27.5361 148.095 27.4056 148.609 27.4056C148.995 27.4056 149.317 27.4709 149.638 27.6014C149.96 27.7319 150.281 27.9277 150.539 28.2541C150.796 28.5152 150.989 28.9068 151.117 29.3636C151.246 29.8205 151.31 30.2774 151.31 30.8648C151.31 31.5175 151.182 32.1049 150.989 32.627C150.796 33.1492 150.474 33.6061 150.089 33.9324C149.638 34.2587 149.124 34.4545 148.545 34.4545C147.709 34.4545 147.066 34.1282 146.68 33.4103V36.8695H144.944V27.6014H146.616V28.5804ZM148.095 33.0839C148.417 33.0839 148.738 32.9534 148.931 32.7576C149.124 32.5618 149.317 32.3007 149.381 31.9744C149.445 31.648 149.51 31.3217 149.51 31.0606C149.51 30.4732 149.381 29.951 149.124 29.5594C148.867 29.1678 148.545 28.972 148.031 28.972C147.002 28.972 146.552 29.69 146.552 31.1259C146.552 31.7133 146.68 32.1702 146.938 32.4965C147.195 32.8228 147.581 33.0839 148.095 33.0839ZM157.934 33.0187C157.934 33.4103 157.998 33.6713 158.062 33.8019C158.127 33.9324 158.255 34.0629 158.384 34.0629V34.324H156.519C156.455 34.0629 156.39 33.8019 156.39 33.5408C156.069 33.8671 155.812 34.0629 155.49 34.2587C155.169 34.4545 154.783 34.5198 154.204 34.5198C153.883 34.5198 153.561 34.4545 153.24 34.324C152.918 34.1935 152.661 33.9324 152.532 33.6713C152.339 33.4103 152.211 33.0186 152.211 32.5618C152.211 32.1049 152.275 31.7786 152.468 31.4522C152.596 31.1259 152.854 30.9301 153.111 30.7343C153.432 30.5385 153.754 30.4079 154.14 30.4079L155.683 30.1469C156.069 30.0816 156.262 29.951 156.262 29.6247C156.262 29.2984 156.133 29.1026 155.94 28.972C155.747 28.9068 155.426 28.8415 155.104 28.8415C154.719 28.8415 154.461 28.9068 154.333 29.1026C154.204 29.2984 154.075 29.4942 154.075 29.7552H152.339C152.404 29.1026 152.596 28.5804 152.854 28.2541C153.175 27.9277 153.497 27.6667 153.883 27.6014C154.268 27.4709 154.783 27.4056 155.297 27.4056C155.683 27.4056 156.069 27.4709 156.455 27.6014C156.841 27.6667 157.162 27.9277 157.484 28.1888C157.741 28.4499 157.934 28.8415 157.934 29.3636V33.0187ZM156.198 31.0606C156.005 31.1911 155.619 31.3217 155.04 31.4522C154.783 31.5175 154.59 31.5175 154.397 31.5827C154.204 31.648 154.075 31.7786 154.011 31.9091C153.883 32.0396 153.818 32.2354 153.818 32.4312C153.818 32.6923 153.883 32.8881 154.075 33.0187C154.268 33.1492 154.461 33.2145 154.654 33.2145C154.911 33.2145 155.169 33.1492 155.426 33.0187C155.683 32.8881 155.876 32.7576 156.005 32.5618C156.133 32.366 156.198 32.1049 156.198 31.8438V31.0606ZM160.828 34.324V29.0373H158.834V27.6014H164.557V29.0373H162.564V34.324H160.828ZM168.351 34.5198C167.773 34.5198 167.194 34.3893 166.679 34.1282C166.165 33.8671 165.779 33.4755 165.458 32.9534C165.136 32.4312 165.007 31.7786 165.007 30.9953C165.007 30.4079 165.072 29.8858 165.265 29.4289C165.458 28.972 165.715 28.6457 166.036 28.3193C166.358 27.993 166.679 27.7972 167.13 27.6667C167.515 27.5361 167.966 27.4709 168.416 27.4709C168.866 27.4709 169.316 27.5361 169.702 27.6667C170.152 27.7972 170.473 27.993 170.795 28.3193C171.116 28.6457 171.374 28.972 171.567 29.4289C171.76 29.8858 171.824 30.4079 171.824 30.9953C171.824 31.5827 171.76 32.1049 171.567 32.5618C171.374 33.0186 171.116 33.345 170.859 33.6713C170.538 33.9977 170.216 34.1935 169.766 34.324C169.252 34.4545 168.801 34.5198 168.351 34.5198ZM168.351 28.972C167.773 28.972 167.322 29.1678 167.13 29.5594C166.872 29.951 166.808 30.4732 166.808 30.9953C166.808 31.5827 166.937 32.0396 167.13 32.4312C167.387 32.8228 167.773 33.0187 168.351 33.0187C168.93 33.0187 169.38 32.8228 169.637 32.4312C169.83 32.0396 169.959 31.5175 169.959 30.9953C169.959 30.4079 169.83 29.951 169.637 29.5594C169.38 29.1026 168.93 28.972 168.351 28.972ZM174.589 28.5804C174.846 28.2541 175.103 27.9277 175.361 27.7319C175.682 27.5361 176.068 27.4056 176.582 27.4056C176.968 27.4056 177.29 27.4709 177.611 27.6014C177.933 27.7319 178.254 27.9277 178.512 28.2541C178.769 28.5152 178.962 28.9068 179.09 29.3636C179.219 29.8205 179.283 30.2774 179.283 30.8648C179.283 31.5175 179.155 32.1049 178.962 32.627C178.769 33.1492 178.447 33.6061 178.062 33.9324C177.611 34.2587 177.161 34.4545 176.518 34.4545C175.682 34.4545 175.039 34.1282 174.653 33.4103H174.589V36.8695H172.917V27.6014H174.589V28.5804ZM176.132 33.0839C176.454 33.0839 176.775 32.9534 176.968 32.7576C177.161 32.5618 177.354 32.3007 177.418 31.9744C177.483 31.648 177.547 31.3217 177.547 31.0606C177.547 30.4732 177.418 29.951 177.226 29.5594C176.968 29.1678 176.582 28.972 176.068 28.972C175.103 28.972 174.589 29.69 174.589 31.1259C174.589 31.7133 174.718 32.1702 174.975 32.4965C175.232 32.8228 175.618 33.0839 176.132 33.0839ZM186.486 34.324H184.749V31.648H182.306V34.324H180.569V27.6014H182.306V30.2774H184.749V27.6014H186.486V34.324ZM189.894 30.2121H190.858C192.723 30.2121 193.623 30.9301 193.623 32.366C193.623 33.0187 193.366 33.4755 192.852 33.8019C192.337 34.1282 191.694 34.324 190.858 34.324H188.158V27.6014H189.894V30.2121ZM196.196 34.324H194.459V27.6014H196.196V34.324ZM189.894 31.4522V33.1492H190.794C191.116 33.1492 191.373 33.0839 191.566 32.9534C191.759 32.8228 191.887 32.627 191.887 32.366C191.887 32.0396 191.823 31.8438 191.63 31.7133C191.437 31.5828 191.18 31.5175 190.858 31.5175H189.894V31.4522ZM203.719 34.324H201.597L200.44 32.3007L199.282 34.324H197.16L199.411 30.9301L197.225 27.6667H199.347L200.504 29.6247L201.597 27.6667H203.655L201.469 30.9301L203.719 34.324ZM214.523 34.1935C214.33 34.8462 214.137 35.3683 213.944 35.7599C213.815 36.0862 213.623 36.4126 213.494 36.5431C213.301 36.7389 213.108 36.8695 212.915 36.9347C212.722 37 212.401 37 212.015 37C211.822 37 211.565 37 211.243 37V35.5641C211.308 35.5641 211.436 35.5641 211.565 35.5641C211.951 35.5641 212.208 35.4988 212.336 35.3683C212.465 35.2378 212.658 34.9767 212.722 34.5198L210.279 27.5361H212.208L213.623 32.4965H213.687L215.037 27.5361H216.902L214.523 34.1935ZM223.526 31.9091C223.526 32.1049 223.461 32.366 223.333 32.6923C223.268 32.9534 223.075 33.2797 222.883 33.5408C222.69 33.8671 222.368 34.0629 221.982 34.2587C221.596 34.4545 221.082 34.5851 220.568 34.5851C219.989 34.5851 219.474 34.5198 219.089 34.2587C218.703 34.0629 218.381 33.8019 218.124 33.4755C217.931 33.1492 217.738 32.8228 217.609 32.4312C217.545 32.0396 217.481 31.648 217.481 31.2564C217.481 30.5385 217.609 29.8858 217.802 29.2984C217.995 28.711 218.381 28.3193 218.831 27.993C219.281 27.6667 219.925 27.5361 220.632 27.5361C221.018 27.5361 221.468 27.6014 221.918 27.7319C222.368 27.9277 222.69 28.1888 223.011 28.5152C223.333 28.9068 223.526 29.4289 223.59 30.0816H221.789C221.661 29.3636 221.275 29.0373 220.632 29.0373C220.31 29.0373 219.989 29.1026 219.796 29.2984C219.603 29.4942 219.41 29.7552 219.346 30.0163C219.281 30.3427 219.217 30.6037 219.217 30.9301C219.217 31.2564 219.217 31.5827 219.281 31.9091C219.346 32.2354 219.474 32.4965 219.667 32.6923C219.86 32.9534 220.182 33.0839 220.568 33.0839C220.825 33.0839 221.082 33.0186 221.211 32.8881C221.404 32.7576 221.532 32.5618 221.596 32.4312C221.661 32.2354 221.725 32.1049 221.725 31.9744H223.526V31.9091ZM226.098 34.324V29.0373H224.104V27.6014H229.763V29.0373H227.77V34.324H226.098ZM236.258 33.0187C236.258 33.4103 236.322 33.6713 236.387 33.8019C236.451 33.9324 236.515 34.0629 236.644 34.0629V34.324H234.779C234.715 34.0629 234.65 33.8019 234.586 33.5408C234.329 33.8671 234.007 34.0629 233.686 34.2587C233.364 34.4545 232.979 34.5198 232.4 34.5198C232.078 34.5198 231.757 34.4545 231.435 34.324C231.114 34.1935 230.856 33.9324 230.664 33.6713C230.471 33.4103 230.406 33.0186 230.406 32.5618C230.406 32.1049 230.471 31.7786 230.664 31.4522C230.856 31.1259 231.049 30.9301 231.307 30.7343C231.564 30.5385 231.95 30.4079 232.335 30.4079L233.879 30.1469C234.329 30.0816 234.522 29.951 234.522 29.6247C234.522 29.2984 234.393 29.1026 234.2 28.972C234.007 28.9068 233.686 28.8415 233.364 28.8415C232.979 28.8415 232.721 28.9068 232.593 29.1026C232.464 29.2984 232.335 29.4942 232.335 29.7552H230.664C230.728 29.1026 230.921 28.5804 231.178 28.2541C231.435 27.9277 231.821 27.6667 232.207 27.6014C232.657 27.4709 233.107 27.4056 233.622 27.4056C234.007 27.4056 234.393 27.4709 234.779 27.6014C235.165 27.6667 235.551 27.9277 235.808 28.1888C236.13 28.4499 236.258 28.8415 236.258 29.3636V33.0187ZM234.586 31.0606C234.393 31.1911 234.007 31.3217 233.429 31.4522C233.171 31.5175 232.979 31.5175 232.786 31.5827C232.593 31.648 232.464 31.7786 232.335 31.9091C232.271 32.0396 232.207 32.2354 232.207 32.4312C232.207 32.6923 232.271 32.8881 232.464 33.0187C232.657 33.1492 232.786 33.2145 233.043 33.2145C233.3 33.2145 233.557 33.1492 233.815 33.0187C234.072 32.8881 234.265 32.7576 234.393 32.5618C234.586 32.366 234.651 32.1049 234.651 31.8438V31.0606H234.586ZM243.782 34.324H242.046V31.648H239.602V34.324H237.866V27.6014H239.602V30.2774H242.046V27.6014H243.782V34.324ZM248.412 34.5198C247.769 34.5198 247.254 34.3893 246.74 34.1282C246.226 33.8671 245.84 33.4755 245.518 32.9534C245.197 32.4312 245.068 31.7786 245.068 30.9953C245.068 30.4079 245.132 29.8858 245.325 29.4289C245.518 28.972 245.775 28.6457 246.097 28.3193C246.418 27.993 246.74 27.7972 247.19 27.6667C247.576 27.5361 248.026 27.4709 248.476 27.4709C248.926 27.4709 249.376 27.5361 249.762 27.6667C250.148 27.7972 250.534 27.993 250.856 28.3193C251.177 28.6457 251.434 28.972 251.563 29.4289C251.756 29.8858 251.82 30.4079 251.82 30.9953C251.82 31.5827 251.756 32.1049 251.563 32.5618C251.37 33.0186 251.113 33.345 250.856 33.6713C250.534 33.9977 250.212 34.1935 249.762 34.324C249.248 34.4545 248.862 34.5198 248.412 34.5198ZM248.412 28.972C247.833 28.972 247.383 29.1678 247.19 29.5594C246.997 29.951 246.869 30.4732 246.869 30.9953C246.869 31.5827 246.997 32.0396 247.19 32.4312C247.447 32.8228 247.833 33.0187 248.412 33.0187C248.991 33.0187 249.441 32.8228 249.698 32.4312C249.955 32.0396 250.02 31.5175 250.02 30.9953C250.02 30.4079 249.891 29.951 249.698 29.5594C249.376 29.1026 248.991 28.972 248.412 28.972Z" fill="#086EB3"/>
<path d="M253.23 34.3447V27.6688H255.839C257.578 27.6688 258.448 28.2521 258.448 29.4188C258.448 29.8077 258.324 30.1317 258.075 30.391C257.827 30.6502 257.516 30.8447 257.144 30.8447C257.392 30.9095 257.64 30.9743 257.889 31.104C258.137 31.2336 258.324 31.428 258.448 31.6225C258.634 31.8169 258.696 32.141 258.696 32.4651C258.696 33.1132 258.448 33.5669 257.951 33.891C257.454 34.2151 256.833 34.3447 256.026 34.3447H253.23ZM254.907 31.4928V33.178H256.026C256.336 33.178 256.584 33.1132 256.771 32.9836C256.957 32.854 257.019 32.6595 257.019 32.4002C257.019 32.0762 256.957 31.8817 256.771 31.7521C256.584 31.6225 256.336 31.5577 256.026 31.5577H254.907V31.4928ZM254.907 28.8354V30.391H255.901C256.212 30.391 256.398 30.3262 256.585 30.1965C256.771 30.0669 256.833 29.8725 256.833 29.6132C256.833 29.0947 256.522 28.8354 255.901 28.8354H254.907ZM262.734 34.5391C262.175 34.5391 261.616 34.4095 261.119 34.1502C260.622 33.891 260.249 33.5021 259.939 32.9836C259.628 32.4651 259.504 31.8169 259.504 31.0391C259.504 30.4558 259.566 29.9373 259.752 29.4836C259.939 29.0299 260.187 28.7058 260.498 28.3817C260.808 28.0577 261.119 27.8632 261.553 27.7336C261.926 27.604 262.361 27.5391 262.796 27.5391C263.23 27.5391 263.665 27.604 264.038 27.7336C264.473 27.8632 264.783 28.0577 265.094 28.3817C265.404 28.7058 265.653 29.0299 265.839 29.4836C266.025 29.9373 266.088 30.4558 266.088 31.0391C266.088 31.6225 266.025 32.141 265.839 32.5947C265.653 33.0484 265.404 33.3725 265.156 33.6965C264.845 34.0206 264.535 34.2151 264.1 34.3447C263.603 34.4743 263.168 34.5391 262.734 34.5391ZM262.734 29.0299C262.175 29.0299 261.74 29.2243 261.553 29.6132C261.305 30.0021 261.243 30.5206 261.243 31.0391C261.243 31.6225 261.367 32.0762 261.553 32.4651C261.802 32.854 262.175 33.0484 262.734 33.0484C263.293 33.0484 263.727 32.854 263.976 32.4651C264.162 32.0762 264.286 31.5577 264.286 31.0391C264.286 30.4558 264.162 30.0021 263.976 29.6132C263.727 29.1595 263.355 29.0299 262.734 29.0299ZM268.883 34.3447H267.206V27.6688H268.883V30.1965L270.994 27.6688H273.106L270.808 30.2614L273.23 34.3447H271.181L269.566 31.4928L268.883 32.2706V34.3447Z" fill="#086EB3"/>
</svg>
