<svg xmlns="http://www.w3.org/2000/svg" viewBox="0 0 13.46 16.24"><defs><style>.cls-1{fill:#00a9ff;}</style></defs><title>map-marker</title><g id="Слой_2" data-name="Слой 2"><g id="Слой_1-2" data-name="Слой 1"><g id="Слой_2-2" data-name="Слой 2"><g id="Слой_1-2-2" data-name="Слой 1-2"><path class="cls-1" d="M6.73,16.24a1,1,0,0,1-.56-.17C5.92,15.9,0,11.9,0,7A6.73,6.73,0,0,1,6.45,0a6.75,6.75,0,0,1,7,6.44c0,.18,0,.36,0,.54,0,4.92-5.92,8.91-6.18,9.08A1,1,0,0,1,6.73,16.24ZM6.73,2h-.2A4.73,4.73,0,0,0,2,6.93C2,9.82,5,12.71,6.72,14c1.35-1,4.73-3.94,4.73-7,0,0,0,0,0,0s0-.26,0-.39A4.74,4.74,0,0,0,6.73,2Z"/><path class="cls-1" d="M6.74,9.88A2.91,2.91,0,1,1,9.65,7,2.91,2.91,0,0,1,6.74,9.88Zm0-3.82A.91.91,0,1,0,7.65,7,.91.91,0,0,0,6.74,6.06Z"/></g></g></g></g></svg>