<svg xmlns="http://www.w3.org/2000/svg" viewBox="0 0 32 34"><defs><style>.cls-1{fill:#fff;}</style></defs><title>ruso</title><g id="Слой_2" data-name="Слой 2"><g id="Слой_1-2" data-name="Слой 1"><path class="cls-1" d="M24.33,14.65C31.94,12.09,35.26,26,27.82,27c-3,.42-6.29.45-7.88-3.23-1.76-4.08.37-7.78,4.39-9.13Zm5.48,6.89c.09-3-.69-5.52-4.08-5-2.75.44-5,2.73-4,5.58C22.93,25.62,29.66,26.28,29.81,21.54Z"/><path class="cls-1" d="M14,7.28a13.23,13.23,0,0,1-.87-3.43c0-1.71,1.73-.69,2.09.18,1,2.38,1.12,5.83,3.7,7.21,1.52.81,4-.23,4.72-1.58,1.21-2.16-1-5.74-1.84-7.84A1.38,1.38,0,0,1,23.5,0c1.27.19,1.58,2.37,1.9,3.36.8,2.44,1.52,6-.42,8.15a6.81,6.81,0,0,1-6.05,2c-2.89-.65-4.09-3.77-4.9-6.27C14.23,7.86,13.72,6.14,14,7.28Z"/><path class="cls-1" d="M9.44,22.31c-1.07.5-2.44,1-2.93-.15-.62-1.46,2.38-1.68,1.78-2.59-.76-1.13-3.69.11-3.7,2.74,0,4,4.53,2.38,6.28,1.57a3.9,3.9,0,0,1,4.6.81c1.28,1.41.73,3.51-1,4.85-1.48,1.13-5.92,1.73-6.6,2.29-1.43,1.18.43,2.61,2,2,5-1.81,7.9-3.19,8.27-6.43.27-2.33-.58-5.26-3.49-5.83A7.49,7.49,0,0,0,9.44,22.31Z"/><path class="cls-1" d="M16.74,19.68c-2.46.8-3.12-2.93-.92-3.71S19.49,18.63,16.74,19.68Z"/><path class="cls-1" d="M.51,9.65a7,7,0,0,0,.15,5.52c.37,1,.81,4.26,1.82,4.79,1.65.88,1.2-2.14.85-3C2.65,15.21,1.7,13.41,2,11.52c.44-3,3.47-4.08,5.83-3.37s3.44,4.31,1.58,5.68a6.36,6.36,0,0,1-4.82.84c-.44-.07-.91.36-.61.83.41.62,1.72.81,2.35.87a5,5,0,0,0,2.16-.18c1.25-.38,1.44.55,2.6,1,.45.19,1.75.13,1.89-.45.21-.86-1.41-1.54-2-1.81a4,4,0,0,0,1.11-2.17C13.86,6.52,3.32,3.11.51,9.65Z"/></g></g></svg>