<svg xmlns="http://www.w3.org/2000/svg" viewBox="0 0 30.6 36.74"><defs><style>.cls-1{fill:#fff;}</style></defs><title>shield-with-check</title><g id="Слой_2" data-name="Слой 2"><g id="Слой_1-2" data-name="Слой 1"><path class="cls-1" d="M28.93,3.93,15.67.05h0A1.34,1.34,0,0,0,15,0h0L1.66,3.93A2.26,2.26,0,0,0,0,6.11V25a6.55,6.55,0,0,0,3.58,5.86L12.27,36l.06,0a6.62,6.62,0,0,0,5.94,0l0,0L27,30.89A6.55,6.55,0,0,0,30.6,25V6.11A2.26,2.26,0,0,0,28.93,3.93ZM28.44,25A4.4,4.4,0,0,1,26,29l0,0-8.71,5.12a4.46,4.46,0,0,1-3.95,0L4.64,29l-.06,0a4.4,4.4,0,0,1-2.43-4V6.11A.1.1,0,0,1,2.23,6L15.3,2.19,28.34,6h0a.1.1,0,0,1,.08.1Z"/><path class="cls-1" d="M15.3,8.4a9.22,9.22,0,1,0,9.21,9.22A9.23,9.23,0,0,0,15.3,8.4Zm0,16.29a7.07,7.07,0,1,1,7.06-7.07A7.07,7.07,0,0,1,15.3,24.69Z"/><path class="cls-1" d="M19.24,14.86a1.08,1.08,0,0,0-1.52-.06l-3.63,3.36L12.9,17a1.08,1.08,0,0,0-1.52,1.52l1.92,1.92,0,0,0,0,0,0,0,0,0,0,0,0,.05,0,0,0,.06,0h0l.07,0h.49l.06,0h0l.06,0,0,0,.05,0,0,0,0,0,0,0,0,0,0,0,0,0,4.39-4.07A1.08,1.08,0,0,0,19.24,14.86Z"/></g></g></svg>