<svg xmlns="http://www.w3.org/2000/svg" viewBox="0 0 52.82 54.9"><defs><style>.cls-1{fill:#0097e3;}</style></defs><title>shipyard</title><g id="Слой_2" data-name="Слой 2"><g id="Слой_1-2" data-name="Слой 1"><path class="cls-1" d="M52.82,3.66V1.83A1.83,1.83,0,0,0,51,0H36.43a1.83,1.83,0,0,0-1.82,1.83V3.66a1.83,1.83,0,0,0,1.82,1.83H39L37.29,18.15h0l-1.65,12H29.14V20.13a1.83,1.83,0,0,0-1.82-1.83H24L7.24,3.21a3.64,3.64,0,1,0-5.42,3.6V54a.91.91,0,1,0,1.82,0V8.43L9.25,16l0,.09.07.06,1.58,2.14h0a1.83,1.83,0,0,0-1.82,1.83V30.19H7.29A1.83,1.83,0,0,0,5.46,32v1.83a1.83,1.83,0,0,0,1.82,1.83v2.74a2.67,2.67,0,0,0,2.59,2.74h1.06v11a2.74,2.74,0,0,0,2.73,2.74h1.82a2.74,2.74,0,0,0,2.73-2.74v-11H25.5v11a2.74,2.74,0,0,0,2.73,2.74h1.82a2.74,2.74,0,0,0,2.73-2.74v-11h7.29v11A2.74,2.74,0,0,0,42.8,54.9h1.82a2.74,2.74,0,0,0,2.73-2.74v-11h1.06A2.67,2.67,0,0,0,51,38.43V35.68a1.83,1.83,0,0,0,1.82-1.83V32a1.83,1.83,0,0,0-1-1.62L50.14,18.17h0L48.4,5.49H51A1.83,1.83,0,0,0,52.82,3.66Zm-51,0A1.82,1.82,0,1,1,3.64,5.49,1.83,1.83,0,0,1,1.82,3.66ZM4.91,7.08a3.65,3.65,0,0,0,2-1.75L10.1,8.24H5.77ZM9.66,13.5,7.12,10.07h3.51ZM38.9,19.81,42,21.7l-3.64,2.24Zm2.52-.6H46l-2.3,1.41Zm5.44,5.49H40.57l3.14-1.93ZM41,17.39l2.72-2,2.72,2Zm4.27-3.11,2.28-1.66L48,16.3Zm.17-2.38-1.72,1.25L42,11.9Zm-.81-1.83V5.49h1.94l.63,4.57Zm-1.82,0H40.23l.63-4.57H42.8Zm-.64,4.21-2.78,2,.51-3.68ZM38,26.54H42.8v3.66H37.47ZM19.23,16.45l2.06,1.85H13.21l-1.35-1.83h7.27Zm-6.79-6.1,4.78,4.29h-6Zm-1.52,9.78H27.32V30.19H10.93Zm5.46,32a.91.91,0,0,1-.91.91H13.66a.91.91,0,0,1-.91-.91v-11h3.64Zm14.57,0a.91.91,0,0,1-.91.91H28.23a.91.91,0,0,1-.91-.91v-11H31Zm14.57,0a.91.91,0,0,1-.91.91H42.8a.91.91,0,0,1-.91-.91v-11h3.64Zm2.88-12.81H9.87a.85.85,0,0,1-.76-.91V35.68H49.18v2.74A.85.85,0,0,1,48.41,39.34ZM51,32v1.83H7.29V32Zm-1-1.83H44.62V26.54h4.83ZM48.53,19.81l.57,4.12L45.46,21.7ZM40.21,3.66H36.43V1.83H51V3.66H40.21Z"/><path class="cls-1" d="M23.68,22H14.57a1.83,1.83,0,0,0-1.82,1.83v2.74a1.83,1.83,0,0,0,1.82,1.83h9.11a1.83,1.83,0,0,0,1.82-1.83V23.79A1.83,1.83,0,0,0,23.68,22Zm-7.29,4.57H14.57V23.79h1.82Zm3.64,0H18.21V23.79H20Zm1.82,0V23.79h1.82v2.74Z"/></g></g></svg>