<svg xmlns="http://www.w3.org/2000/svg" viewBox="0 0 32 36.74"><defs><style>.cls-1{fill:#fff;}</style></defs><title>timer</title><g id="Слой_2" data-name="Слой 2"><g id="Слой_1-2" data-name="Слой 1"><path class="cls-1" d="M32,10a1.08,1.08,0,0,0-.32-.76L27.51,5A1.08,1.08,0,0,0,26,5l-2.7,2.7a15.33,15.33,0,0,0-3.72-1.54V1.08A1.08,1.08,0,0,0,18.48,0H12.57a1.08,1.08,0,0,0-1.08,1.08V6.19a15.54,15.54,0,0,0-6.94,26A15.53,15.53,0,0,0,29,13.44l2.7-2.7A1.08,1.08,0,0,0,32,10ZM15.53,34.57A13.37,13.37,0,1,1,28.89,21.2,13.39,13.39,0,0,1,15.53,34.57ZM17.4,2.16V5.78a15.75,15.75,0,0,0-3.75,0V2.16Zm9.1,8.06A15.81,15.81,0,0,0,25.1,9l1.65-1.65L29.39,10l-1.65,1.65A15.75,15.75,0,0,0,26.5,10.22Z"/><path class="cls-1" d="M15.53,10.3A10.9,10.9,0,1,0,26.41,21.2,10.91,10.91,0,0,0,15.53,10.3Zm0,19.63a8.74,8.74,0,1,1,8.73-8.73A8.74,8.74,0,0,1,15.53,29.94Z"/><path class="cls-1" d="M16.61,18.09V15.64a1.08,1.08,0,1,0-2.16,0v2.46a3.29,3.29,0,1,0,2.16,0Zm-1.08,4.24a1.13,1.13,0,1,1,1.13-1.13A1.13,1.13,0,0,1,15.53,22.33Z"/></g></g></svg>