<svg xmlns="http://www.w3.org/2000/svg" viewBox="0 0 54.64 54.89"><defs><style>.cls-1{fill:#0097e3;}</style></defs><title>truck</title><g id="Слой_2" data-name="Слой 2"><g id="Слой_1-2" data-name="Слой 1"><path class="cls-1" d="M53.73,53.06H.91a.91.91,0,0,0,0,1.83H53.73a.91.91,0,0,0,0-1.83Z"/><path class="cls-1" d="M53.73,45.74h-10a.91.91,0,0,0,0,1.83h10a.91.91,0,0,0,0-1.83Z"/><path class="cls-1" d="M53.73,49.4h-10a.91.91,0,0,0,0,1.83h10a.91.91,0,0,0,0-1.83Z"/><path class="cls-1" d="M40.07,45.74H.91a.91.91,0,0,0,0,1.83H40.07a.91.91,0,0,0,0-1.83Z"/><path class="cls-1" d="M.91,51.23h10a.91.91,0,0,0,0-1.83H.91a.91.91,0,0,0,0,1.83Z"/><path class="cls-1" d="M40.07,49.4H14.57a.91.91,0,0,0,0,1.83h25.5a.91.91,0,0,0,0-1.83Z"/><path class="cls-1" d="M6.22,34.36a.91.91,0,1,0-1.63.81,9.1,9.1,0,0,0,.59,1,.91.91,0,0,0,1.25.23.92.92,0,0,0,.26-1.25A7.45,7.45,0,0,1,6.22,34.36Z"/><path class="cls-1" d="M5.46,31.1a7.31,7.31,0,0,1,7.29-7.32.91.91,0,0,0,0-1.83A9.14,9.14,0,0,0,3.64,31.1a.91.91,0,1,0,1.82,0Z"/><path class="cls-1" d="M12.75,25.62a5.49,5.49,0,1,0,5.46,5.49A5.48,5.48,0,0,0,12.75,25.62Zm0,9.15a3.66,3.66,0,1,1,3.64-3.66A3.65,3.65,0,0,1,12.75,34.76Z"/><path class="cls-1" d="M53.73,42.08H51.59a8.23,8.23,0,0,0,.32-12.52V20.13a.91.91,0,0,0-.83-.91L37.34,18v-7.9h.91a.91.91,0,0,0,0-1.83H36.43a.91.91,0,0,0-.91.91V17.8l-3.64-.33V.91A.91.91,0,0,0,31,0H10a.91.91,0,0,0,0,1.83h1.82V14.64H10a.91.91,0,0,0,0,1.83h1.82v1.88A12.8,12.8,0,0,0,6.22,42.08H.91a.91.91,0,0,0,0,1.83H53.73a.91.91,0,0,0,0-1.83ZM47.27,24.36h.08a.92.92,0,0,0,.08-1.83L31.87,21.12V19.3l4.55.41L50.09,21v7.35a8.14,8.14,0,0,0-11,3.71h-10V29.28a14.57,14.57,0,0,0-1.49-6.4h3.27ZM20.95,1.83h9.11V21H26.61a14.67,14.67,0,0,0-5.66-4.91Zm-7.29,0h5.46V15.38a14.43,14.43,0,0,0-4.55-.74h-.91Zm0,14.64h.91A12.79,12.79,0,0,1,27.32,29.28V32H25.45c0-.3,0-.61,0-.91A12.79,12.79,0,0,0,13.66,18.34ZM1.82,31.11a10.93,10.93,0,1,1,10.93,11A11,11,0,0,1,1.82,31.11Zm17.46,11a12.83,12.83,0,0,0,5.91-8.23H38.46a8.19,8.19,0,0,0,2.84,8.23Zm26.54,0a6.39,6.39,0,0,1-5.29-8.75h0A6.37,6.37,0,1,1,45.82,42Z"/><path class="cls-1" d="M46.45,32a3.66,3.66,0,1,0,3.64,3.66A3.65,3.65,0,0,0,46.45,32Zm0,5.49a1.83,1.83,0,1,1,1.82-1.83A1.83,1.83,0,0,1,46.45,37.51Z"/></g></g></svg>